<svg fill="none" height="9" viewBox="0 0 11 9" width="11" xmlns="http://www.w3.org/2000/svg">
    <path
        d="M9.29013 0.279057C9.48022 0.0980894 9.73317 -0.00195678 9.99561 2.90055e-05C10.2581 0.00201479 10.5095 0.105878 10.6968 0.289701C10.8841 0.473524 10.9927 0.72293 10.9996 0.985291C11.0066 1.24765 10.9113 1.50245 10.734 1.69591L5.34992 8.42935C5.25734 8.52907 5.1456 8.60909 5.02139 8.66464C4.89718 8.72018 4.76304 8.75011 4.62699 8.75263C4.49095 8.75515 4.35579 8.73021 4.2296 8.6793C4.10342 8.62839 3.98879 8.55256 3.89259 8.45634L0.32211 4.88586C0.222678 4.79321 0.142926 4.68148 0.0876122 4.55734C0.0322982 4.43319 0.00255507 4.29918 0.0001575 4.1633C-0.00224007 4.02741 0.0227571 3.89243 0.0736574 3.76641C0.124558 3.6404 0.200318 3.52592 0.29642 3.42982C0.392521 3.33372 0.506995 3.25796 0.633012 3.20706C0.759028 3.15616 0.894006 3.13116 1.02989 3.13356C1.16578 3.13596 1.29979 3.1657 1.42394 3.22101C1.54808 3.27633 1.65981 3.35608 1.75246 3.45551L4.57807 6.27978L9.26449 0.308744C9.27293 0.298355 9.28059 0.288443 9.29013 0.279057Z"
        fill="white" />
</svg>
